<?xml version="1.0" encoding="UTF-8" standalone="no"?>
<!-- Created with Inkscape (http://www.inkscape.org/) -->

<svg
   version="1.1"
   id="svg9"
   xml:space="preserve"
   width="682.66669"
   height="682.66669"
   viewBox="0 0 682.66669 682.66669"
   xmlns="http://www.w3.org/2000/svg"
   xmlns:svg="http://www.w3.org/2000/svg"><defs
     id="defs13"><clipPath
       clipPathUnits="userSpaceOnUse"
       id="clipPath23"><path
         d="M 0,512 H 512 V 0 H 0 Z"
         id="path21" /></clipPath></defs><g
     id="g15"
     transform="matrix(1.3333333,0,0,-1.3333333,0,682.66667)"><g
       id="g17"><g
         id="g19"
         clip-path="url(#clipPath23)"><g
           id="g25"
           transform="translate(406.04,92.4199)"><path
             d="m 0,0 c 26.97,-13.64 48.03,-33.93 48.03,-68.08 v -7.11 c 0,-5.37 -4.36,-9.73 -9.73,-9.73 h -376.68 c -5.37,0 -9.73,4.36 -9.73,9.73 v 7.11 c 0,66.01 78.64,80.21 126.71,94.77 5.2,1.57 8.76,6.36 8.76,11.8 v 44.64"
             style="fill:none;stroke:#000000;stroke-width:15;stroke-linecap:round;stroke-linejoin:round;stroke-miterlimit:10;stroke-dasharray:none;stroke-opacity:1"
             id="path27" /></g><g
           id="g29"
           transform="translate(318.6001,175.5498)"><path
             d="m 0,0 v -44.64 c 0,-5.44 3.56,-10.23 8.76,-11.8 13.66,-4.14 29.79,-8.25 45.87,-13.52"
             style="fill:none;stroke:#000000;stroke-width:15;stroke-linecap:round;stroke-linejoin:round;stroke-miterlimit:10;stroke-dasharray:none;stroke-opacity:1"
             id="path31" /></g><g
           id="g33"
           transform="translate(256,504.5)"><path
             d="M 0,0 C 72.66,0 133.37,-51.14 148.09,-119.39"
             style="fill:none;stroke:#000000;stroke-width:15;stroke-linecap:round;stroke-linejoin:round;stroke-miterlimit:10;stroke-dasharray:none;stroke-opacity:1"
             id="path35" /></g><g
           id="g37"
           transform="translate(141.5,357.96)"><path
             d="M 0,0 C -1.54,-4.61 -2.76,-9.36 -3.61,-14.24"
             style="fill:none;stroke:#000000;stroke-width:15;stroke-linecap:round;stroke-linejoin:round;stroke-miterlimit:10;stroke-dasharray:none;stroke-opacity:1"
             id="path39" /></g><g
           id="g41"
           transform="translate(196.3599,188.8101)"><path
             d="m 0,0 c 21.36,-12.48 43.98,-19.62 59.64,-19.62 15.67,0 38.28,7.14 59.64,19.61"
             style="fill:none;stroke:#000000;stroke-width:15;stroke-linecap:round;stroke-linejoin:round;stroke-miterlimit:10;stroke-dasharray:none;stroke-opacity:1"
             id="path43" /></g><g
           id="g45"
           transform="translate(222.5801,425.46)"><path
             d="m 0,0 c 4.58,0.65 9.26,0.98 14.01,0.98 h 38.82 c 49.39,0 90.42,-35.71 98.7,-82.72"
             style="fill:none;stroke:#000000;stroke-width:15;stroke-linecap:round;stroke-linejoin:round;stroke-miterlimit:10;stroke-dasharray:none;stroke-opacity:1"
             id="path47" /></g><g
           id="g49"
           transform="translate(141.4707,357.8921)"><path
             d="m 0,0 c 18.066,43.357 134.925,98.804 200.422,119.913 -24.411,16.831 -53.998,26.695 -85.893,26.695 -25.48,0 -49.491,-6.29 -70.565,-17.402"
             style="fill:none;stroke:#000000;stroke-width:15;stroke-linecap:round;stroke-linejoin:round;stroke-miterlimit:10;stroke-dasharray:none;stroke-opacity:1"
             id="path51" /></g><g
           id="g53"
           transform="translate(146.0601,260.77)"><path
             d="m 0,0 c 7.21,3.3 11.57,11.16 10.1,19.32 l -9.14,51.03 -48.06,66.34 -15.09,84.19 c -0.49,2.72 -3.09,4.53 -5.8,4.04 l -62.47,-11.2 c -2.8,-0.5 -4.62,-3.24 -4,-6.02 L -93.4,25.36 c 4.55,-20.24 16.28,-38.15 33,-50.43 l 91.41,-67.11 c 4.12,-3.02 9.95,-2.29 13.09,1.75 9.06,11.64 8.11,28.17 -2.2,38.7 L 2.31,-11.3 0,0 c -1.33,-0.61 -2.76,-1.07 -4.27,-1.34 -9.68,-1.73 -18.92,4.71 -20.66,14.38 l -9.15,51.03"
             style="fill:none;stroke:#000000;stroke-width:15;stroke-linecap:round;stroke-linejoin:round;stroke-miterlimit:10;stroke-dasharray:none;stroke-opacity:1"
             id="path55" /></g><g
           id="g57"
           transform="translate(400.0171,324.8389)"><path
             d="m 0,0 -9.148,-51.028 c -1.735,-9.675 -10.983,-16.111 -20.658,-14.377 -9.674,1.735 -16.111,10.983 -14.376,20.657 l 9.148,51.029 48.057,66.34 15.09,84.19 c 0.49,2.72 3.09,4.53 5.8,4.04 l 62.47,-11.2 c 2.8,-0.5 4.62,-3.24 4,-6.02 l -41.06,-182.34 c -4.55,-20.24 -16.28,-38.15 -33,-50.43 l -91.41,-67.11 c -4.12,-3.02 -9.95,-2.29 -13.09,1.75 -9.06,11.64 -8.11,28.17 2.2,38.7 l 39.59,40.43 2.31,11.3"
             style="fill:none;stroke:#000000;stroke-width:15;stroke-linecap:round;stroke-linejoin:round;stroke-miterlimit:10;stroke-dasharray:none;stroke-opacity:1"
             id="path59" /></g><g
           id="g61"
           transform="translate(184.8843,316.1143)"><path
             d="M 0,0 C 9.692,5.947 19.384,5.947 29.077,0"
             style="fill:none;stroke:#000000;stroke-width:15;stroke-linecap:round;stroke-linejoin:round;stroke-miterlimit:10;stroke-dasharray:none;stroke-opacity:1"
             id="path63" /></g><g
           id="g65"
           transform="translate(298.0391,316.1143)"><path
             d="M 0,0 C 9.692,5.947 19.384,5.947 29.077,0"
             style="fill:none;stroke:#000000;stroke-width:15;stroke-linecap:round;stroke-linejoin:round;stroke-miterlimit:10;stroke-dasharray:none;stroke-opacity:1"
             id="path67" /></g><g
           id="g69"
           transform="translate(229.1523,238.8667)"><path
             d="M 0,0 C 17.131,-7.413 36.564,-7.413 53.695,0"
             style="fill:none;stroke:#000000;stroke-width:15;stroke-linecap:round;stroke-linejoin:round;stroke-miterlimit:10;stroke-dasharray:none;stroke-opacity:1"
             id="path71" /></g><g
           id="g73"
           transform="translate(107.9102,385.1099)"><path
             d="M 0,0 C 6.99,32.38 24.32,60.91 48.38,81.95"
             style="fill:none;stroke:#000000;stroke-width:15;stroke-linecap:round;stroke-linejoin:round;stroke-miterlimit:10;stroke-dasharray:none;stroke-opacity:1"
             id="path75" /></g></g></g></g></svg>
