<svg id="Capa_1" enable-background="new 0 0 512.468 512.468" height="512" viewBox="0 0 512.468 512.468" width="512" xmlns="http://www.w3.org/2000/svg"><g><path d="m129.84 23.671c.803 3.466 3.889 5.809 7.3 5.809.561 0 1.13-.063 1.699-.195 4.035-.935 6.549-4.963 5.614-8.999-1.164-5.023-2.529-10.073-4.061-15.007-1.228-3.956-5.423-6.168-9.386-4.941-3.956 1.227-6.168 5.429-4.94 9.385 1.423 4.587 2.693 9.279 3.774 13.948z"/><path d="m129.862 139.501c.777.255 1.565.376 2.341.376 3.153 0 6.088-2.004 7.125-5.163 3.004-9.151 5.407-18.597 7.142-28.075.746-4.075-1.952-7.982-6.026-8.728s-7.981 1.953-8.728 6.027c-1.613 8.81-3.847 17.59-6.64 26.097-1.292 3.937.851 8.174 4.786 9.466z"/><path d="m107.884 190.953c.966.416 1.971.613 2.96.613 2.906 0 5.672-1.699 6.894-4.538l11.056-25.694c1.637-3.805-.12-8.216-3.926-9.854-3.805-1.639-8.217.12-9.854 3.925l-11.056 25.694c-1.636 3.805.121 8.216 3.926 9.854z"/><path d="m140.904 42.107c-4.125.378-7.162 4.029-6.784 8.154.548 5.978.826 12.056.826 18.066 0 2.947-.066 5.926-.198 8.854-.187 4.138 3.018 7.643 7.155 7.83.115.005.229.007.343.007 3.986 0 7.306-3.14 7.486-7.163.142-3.152.214-6.357.214-9.528 0-6.465-.299-13.004-.889-19.436-.379-4.125-4.039-7.168-8.153-6.784z"/><path d="m123.546 466.341c-3.975-7.458-7.766-15.129-11.267-22.8-1.721-3.768-6.165-5.43-9.938-3.709-3.768 1.72-5.429 6.169-3.709 9.937 3.629 7.951 7.557 15.9 11.677 23.628 1.35 2.532 3.943 3.974 6.625 3.974 1.189 0 2.397-.284 3.521-.883 3.656-1.949 5.039-6.492 3.091-10.147z"/><path d="m95.44 430.276c.893 0 1.801-.161 2.684-.5 3.868-1.483 5.801-5.821 4.317-9.688-3.024-7.883-5.841-15.963-8.371-24.014-1.243-3.952-5.455-6.147-9.404-4.906-3.952 1.242-6.148 5.453-4.906 9.404 2.624 8.345 5.543 16.718 8.676 24.888 1.144 2.984 3.988 4.816 7.004 4.816z"/><path d="m136.203 488.404c-2.173-3.528-6.793-4.627-10.318-2.455-3.527 2.171-4.627 6.792-2.455 10.318 2.664 4.328 5.435 8.653 8.234 12.857 1.444 2.169 3.824 3.344 6.249 3.344 1.429 0 2.872-.408 4.15-1.259 3.447-2.296 4.381-6.952 2.085-10.399-2.701-4.056-5.374-8.23-7.945-12.406z"/><path d="m476.755 124.89c-.467-4.116-4.189-7.068-8.299-6.605l-10.855 1.233c-1.953-8.218-4.832-16.294-8.651-24.09l-20.562-41.969c-6.97-14.224-10.653-30.115-10.653-45.956 0-4.142-3.357-7.5-7.5-7.5s-7.5 3.358-7.5 7.5c0 18.116 4.213 36.289 12.183 52.556l20.562 41.969c3.05 6.225 5.408 12.655 7.088 19.198l-18.654 2.119 2.309-3.078c2.485-3.313 1.813-8.015-1.5-10.5-3.313-2.486-8.014-1.813-10.5 1.5l-12.746 16.994c-2.385 3.18-1.875 7.667 1.162 10.231l16.233 13.702c1.408 1.188 3.126 1.769 4.834 1.769 2.133 0 4.252-.905 5.735-2.663 2.672-3.165 2.271-7.897-.894-10.569l-2.94-2.481 19.572-2.223c1.779 18.039-1.458 36.401-9.731 53.255-3.852 7.849-8.632 15.034-14.189 21.445l-1.688-3.922c-1.637-3.804-6.047-5.565-9.854-3.925-3.806 1.637-5.562 6.049-3.926 9.854l3.974 9.236c-12.307 10.208-27.08 17.372-43.326 20.71-48.589 9.982-98.345 13.342-147.882 9.986-4.134-.284-7.71 2.843-7.989 6.976-.28 4.133 2.843 7.71 6.976 7.99 12.737.863 25.482 1.293 38.226 1.293 38.168 0 76.269-3.865 113.688-11.552 17.202-3.534 32.968-10.795 46.413-21.079 10.48 25.332 17.774 51.666 21.854 78.417l-19.024 2.382c-20.592 2.578-40.62 8.332-59.527 17.102-3.757 1.743-5.391 6.202-3.647 9.959 1.27 2.736 3.979 4.346 6.809 4.346 1.057 0 2.13-.225 3.151-.698 17.497-8.116 36.028-13.44 55.078-15.826l19.094-2.391c.412 3.83.775 7.664 1.056 11.504-.435-.169-.89-.302-1.366-.389-4.068-.746-7.982 1.953-8.728 6.028-1.52 8.306-3.318 16.671-5.348 24.862-.995 4.021 1.456 8.087 5.478 9.083.605.15 1.212.222 1.809.222 3.366 0 6.429-2.284 7.274-5.699.61-2.462 1.193-4.942 1.761-7.428-.193 33.782-5.414 67.6-15.762 100.297l-9.471 29.923c-1.25 3.949.938 8.164 4.888 9.414.753.238 1.515.352 2.265.352 3.183 0 6.137-2.043 7.148-5.239l9.471-29.923c25.637-81 21.262-168.59-12.32-246.632l-.067-.155c8.485-8.628 15.653-18.678 21.167-29.913 9.562-19.481 13.281-40.711 11.18-61.559l10.056-1.142c4.114-.47 7.072-4.186 6.605-8.301z"/><path d="m86.637 468.068c-.282-.896-.553-1.794-.822-2.693l-.399-1.327c-1.204-3.964-5.394-6.201-9.356-4.997-3.963 1.204-6.2 5.392-4.997 9.355l.387 1.282c.29.967.581 1.934.887 2.901l9.471 29.923c1.012 3.196 3.965 5.239 7.148 5.239.75 0 1.513-.113 2.265-.352 3.949-1.25 6.138-5.464 4.888-9.414z"/><path d="m373.63 29.286c.569.132 1.139.195 1.699.195 3.411 0 6.497-2.343 7.3-5.809 1.081-4.669 2.351-9.361 3.773-13.947 1.228-3.956-.984-8.158-4.94-9.385-3.96-1.228-8.158.985-9.386 4.941-1.531 4.934-2.896 9.983-4.061 15.007-.934 4.034 1.579 8.063 5.615 8.998z"/><path d="m383.675 161.333 11.056 25.694c1.222 2.839 3.987 4.538 6.894 4.538.988 0 1.994-.197 2.96-.613 3.806-1.637 5.562-6.049 3.926-9.854l-11.056-25.694c-1.637-3.804-6.047-5.563-9.854-3.925-3.806 1.638-5.563 6.05-3.926 9.854z"/><path d="m370.222 85.018c.114 0 .229-.002.343-.007 4.138-.187 7.342-3.692 7.155-7.83-.132-2.928-.198-5.907-.198-8.854 0-6.01.278-12.088.826-18.066.378-4.125-2.659-7.775-6.784-8.154-4.12-.385-7.775 2.659-8.153 6.784-.59 6.432-.889 12.971-.889 19.436 0 3.171.072 6.376.214 9.528.181 4.023 3.499 7.163 7.486 7.163z"/><path d="m372.025 97.912c-4.074.746-6.772 4.653-6.026 8.728 1.734 9.478 4.138 18.923 7.142 28.075 1.037 3.159 3.972 5.163 7.125 5.163.774 0 1.563-.121 2.341-.376 3.935-1.292 6.078-5.53 4.786-9.465-2.793-8.507-5.026-17.287-6.64-26.097-.745-4.075-4.651-6.772-8.728-6.028z"/><path d="m414.344 429.777c.883.339 1.791.5 2.684.5 3.017 0 5.86-1.832 7.005-4.816 3.133-8.17 6.052-16.543 8.676-24.888 1.242-3.951-.954-8.162-4.906-9.404-3.948-1.241-8.161.954-9.404 4.906-2.53 8.051-5.347 16.131-8.371 24.014-1.484 3.867.448 8.205 4.316 9.688z"/><path d="m410.127 439.831c-3.772-1.721-8.219-.059-9.938 3.709-3.501 7.671-7.292 15.343-11.267 22.8-1.948 3.655-.565 8.198 3.09 10.146 1.124.599 2.331.883 3.521.883 2.682 0 5.275-1.442 6.625-3.974 4.12-7.728 8.048-15.678 11.677-23.628 1.72-3.767.059-8.216-3.708-9.936z"/><path d="m386.584 485.949c-3.525-2.172-8.146-1.074-10.318 2.455-2.571 4.176-5.244 8.35-7.945 12.406-2.296 3.448-1.362 8.104 2.085 10.399 1.278.852 2.722 1.259 4.15 1.259 2.425 0 4.805-1.174 6.249-3.344 2.8-4.204 5.57-8.53 8.234-12.857 2.172-3.527 1.072-8.147-2.455-10.318z"/><path d="m328.439 351.851-63.382 43.002c-5.664 3.843-12.982 3.842-18.646 0l-65.874-44.692c-26.11-17.715-56.46-29.15-87.769-33.069l-18.117-2.268c4.053-26.569 11.298-52.71 21.7-77.965 13.28 9.983 28.777 17.045 45.66 20.514 14.154 2.908 28.632 5.302 43.028 7.118.318.041.635.06.948.06 3.724 0 6.953-2.771 7.432-6.562.518-4.11-2.394-7.861-6.503-8.379-14.017-1.768-28.11-4.099-41.889-6.93-15.922-3.271-30.429-10.217-42.586-20.102l4.236-9.844c1.637-3.805-.12-8.216-3.926-9.854-3.804-1.638-8.217.12-9.854 3.925l-2.014 4.68c-5.843-6.603-10.857-14.041-14.863-22.203-8.29-16.889-11.524-35.293-9.72-53.368l20.561 2.336-2.94 2.481c-3.165 2.672-3.565 7.404-.894 10.569 1.483 1.758 3.603 2.663 5.735 2.663 1.708 0 3.426-.581 4.834-1.769l16.233-13.702c3.037-2.564 3.547-7.052 1.162-10.231l-12.746-16.994c-2.486-3.315-7.189-3.985-10.5-1.5-3.313 2.485-3.985 7.187-1.5 10.5l2.309 3.078-19.627-2.23c1.678-6.505 4.028-12.898 7.061-19.088l20.562-41.969c7.97-16.267 12.183-34.44 12.183-52.556 0-4.142-3.357-7.5-7.5-7.5s-7.5 3.358-7.5 7.5c0 15.841-3.684 31.732-10.653 45.956l-20.562 41.969c-3.802 7.761-6.671 15.8-8.624 23.98l-9.882-1.123c-4.119-.468-7.832 2.489-8.299 6.605-.468 4.116 2.49 7.831 6.605 8.299l9.067 1.03c-2.126 20.884 1.59 42.156 11.169 61.671 5.666 11.543 13.078 21.834 21.87 30.618-28.477 66.484-35.893 139.086-21.432 210.004.725 3.553 3.851 6.003 7.341 6.003.497 0 1.001-.05 1.506-.153 4.06-.828 6.679-4.789 5.851-8.847-4.469-21.92-6.745-44.007-6.876-66.012.587 2.575 1.189 5.144 1.821 7.693.846 3.415 3.907 5.699 7.274 5.699.597 0 1.203-.072 1.809-.222 4.021-.996 6.473-5.062 5.478-9.083-2.029-8.191-3.828-16.557-5.348-24.862-.746-4.075-4.657-6.773-8.728-6.028-.497.091-.973.23-1.426.41.277-3.81.615-7.614 1.021-11.411l18.188 2.277c28.969 3.626 57.051 14.208 81.21 30.599l65.874 44.691c3.342 2.268 6.986 3.829 10.745 4.69v17.269c0 24.802-4.869 48.973-14.471 71.839-1.604 3.819.192 8.215 4.012 9.819.948.398 1.932.587 2.9.587 2.93 0 5.713-1.728 6.918-4.598 3.204-7.629 5.916-15.394 8.141-23.27 2.224 7.877 4.937 15.641 8.141 23.27 1.205 2.871 3.988 4.598 6.918 4.598.968 0 1.952-.188 2.9-.587 3.819-1.604 5.615-6 4.012-9.819-9.602-22.867-14.471-47.037-14.471-71.839v-17.535c3.404-.899 6.702-2.36 9.745-4.424l63.382-43.001c3.428-2.326 4.321-6.99 1.995-10.417-2.323-3.428-6.987-4.322-10.415-1.996z"/><path d="m256.234 200.114c4.143 0 7.5-3.358 7.5-7.5v-7.655c0-4.142-3.357-7.5-7.5-7.5s-7.5 3.358-7.5 7.5v7.655c0 4.142 3.358 7.5 7.5 7.5z"/></g></svg>