<svg id="ar" height="512" viewBox="0 0 48 48" width="512" xmlns="http://www.w3.org/2000/svg"><path d="m16.92 12.57c-.43.36-1.05.93-1.49 1.62-.62.96-.9 2.11-.32 3.26.32.64.97 1.18 1.76 1.66.82.5 1.83.91 2.37 1.54.12.14.1.36.12.59.04.47.02.98.05 1.44.07 1.04.43 1.85 1.14 2.21 2.09 1.05 2.57 2.75 3.03 4.11.45 1.33.95 2.38 1.97 2.89.75.38 1.64.28 2.43-.06.44-.19.84-.44 1.14-.66.35.5.72.98 1.1 1.46 1.89 2.33 3.67 3.29 7.3 5.25 1.21.65 2.54.96 3.58 1.21.3.07.66.19.88.26-.06.78-.31 1.54-.92 2.04-.48.39-1.16.61-2.07.61-1.34 0-2.51-.5-3.66-1.07-1.33-.67-2.63-1.44-4.04-1.88-1.65-.52-3.99-.29-6.18-.42-1.74-.1-3.4-.42-4.23-2.07-.18-.36-.14-.77-.05-1.2.13-.62.39-1.28.65-1.94.3-.77.58-1.56.71-2.3.16-.92.1-1.79-.32-2.58-.59-1.11-1.72-2.21-3.11-3.26-1.9-1.44-4.3-2.82-6.22-4.1-5.62-3.75-6.56-10.31-6.56-10.31-.08-.55-.59-.93-1.13-.85-.55.08-.93.59-.85 1.13 0 0 1.06 7.44 7.44 11.69 1.88 1.25 4.24 2.61 6.12 4.03 1.13.85 2.08 1.72 2.56 2.61.21.4.2.84.12 1.3-.11.63-.36 1.28-.61 1.93-.36.94-.71 1.87-.82 2.72-.09.73-.01 1.41.3 2.03 1.17 2.35 3.43 3.03 5.9 3.18 2.02.12 4.18-.15 5.69.33 1.31.41 2.51 1.14 3.75 1.76 1.42.71 2.89 1.28 4.55 1.28 1.49 0 2.57-.43 3.34-1.06 1.17-.96 1.66-2.44 1.66-3.94 0-.61-.38-1.19-1.31-1.53-.92-.34-2.69-.52-4.22-1.35-3.32-1.79-4.97-2.63-6.7-4.75-4.34-5.34-6.01-12.01-19.02-27.02-.36-.42-.99-.46-1.41-.1s-.46.99-.1 1.41c2.19 2.53 4.06 4.82 5.68 6.91zm1.21 1.59c-.31.26-.72.65-1.02 1.11-.25.38-.45.83-.22 1.28.23.47.85.76 1.45 1.1.9.51 1.84 1.04 2.41 1.7.26.3.43.71.52 1.18.09.48.09 1.04.11 1.59 0 .28.01.55.05.79.01.07.05.18.06.23 2.25 1.15 3.11 2.83 3.68 4.4.24.66.42 1.29.66 1.82.15.32.3.61.6.76.23.12.5 0 .75-.11.32-.14.62-.33.82-.48-2.31-3.65-4.58-8.26-9.89-15.35zm12.87 4.84c-1.66 0-3 1.34-3 3s1.34 3 3 3 3-1.34 3-3-1.34-3-3-3zm0 2c.55 0 1 .45 1 1s-.45 1-1 1-1-.45-1-1 .45-1 1-1zm2.97-10h7.03c.8 0 1.56-.32 2.12-.88s.88-1.33.88-2.12-.32-1.56-.88-2.12-1.33-.88-2.12-.88h-7.83c-.65-.23-2.9-1-4.17-1-4.94 0-6.13 4.98-4.89 7.45.35.7.77 1.02 1.14 1.18.47.19.95.16 1.43-.05.28-.12.55-.3.82-.48.05.14.09.3.14.47.25.88.47 2 .79 2.94.27.79.63 1.45 1.07 1.87.42.4.92.62 1.51.62.5 0 .94-.19 1.33-.55.37-.36.7-.93.93-1.64.49-1.46.65-3.57.71-4.8zm-3.03 4.99c-.11-.03-.17-.16-.24-.27-.15-.24-.28-.54-.39-.87-.37-1.07-.6-2.4-.91-3.3-.19-.56-.44-1-.7-1.26-.55-.55-1.25-.55-2.01-.07-.19.12-.55.35-.73.46-.03-.04-.05-.08-.08-.13-.76-1.53.05-4.55 3.11-4.55.84 0 2.2.42 3 .7v3.3s.01 3.23-.63 5.17c-.09.26-.19.5-.31.68-.03.04-.08.1-.11.14zm3.05-8.99v2h7c.27 0 .52-.11.71-.29.19-.19.29-.44.29-.71s-.11-.52-.29-.71c-.19-.19-.44-.29-.71-.29z" fill-rule="evenodd"/></svg>