<?xml version="1.0" encoding="UTF-8"?>
<svg xmlns="http://www.w3.org/2000/svg" viewBox="0 0 64 64" width="512" height="512"><g id="Layer_32" data-name="Layer 32"><path d="M57,11a5.945,5.945,0,0,0-5.375,3.361l-1.33.345.345-1.33a6.016,6.016,0,1,0-6.955-1.238L42.637,16.33A19,19,0,0,0,5,20v6.969A21.745,21.745,0,0,1,2.139,37.741a8.648,8.648,0,0,0,4,12.192l.428.19A10.275,10.275,0,0,0,1,59.263V63H3V59.263a8.3,8.3,0,0,1,6.289-8.055l3.789-.947a10.994,10.994,0,0,0,21.844,0l3.789.947A8.3,8.3,0,0,1,45,59.263V63h2V59.263a10.275,10.275,0,0,0-5.563-9.14l.428-.19a8.648,8.648,0,0,0,4-12.192,21.786,21.786,0,0,1-1.713-3.832,7.415,7.415,0,0,0,2.075-3.5l2.061-7.952,4.578-1.145A5.991,5.991,0,1,0,57,11ZM48,4a3.993,3.993,0,0,1,1.434,7.722.994.994,0,0,0-.608.681l-.741,2.856-2.935-.734.618-2.472a1,1,0,0,0-.327-1.007A3.981,3.981,0,0,1,48,4ZM24,58a9.008,9.008,0,0,1-8.961-8.229l3.2-.8A1,1,0,0,0,19,48V44.138a7.644,7.644,0,0,0,10,0V48a1,1,0,0,0,.757.97l3.2.8A9.008,9.008,0,0,1,24,58Zm4.938-16.685-.692.779a5.681,5.681,0,0,1-8.492,0l-.692-.778A20.022,20.022,0,0,1,14,28a6.837,6.837,0,0,1,3.958-6.188L21.88,20a20.9,20.9,0,0,0,6.558-4.772A16.936,16.936,0,0,0,30.6,20.8l1.8,2.4A8.056,8.056,0,0,1,34,28,20.022,20.022,0,0,1,28.938,41.315Zm15.187-2.582A6.648,6.648,0,0,1,41.053,48.1l-2.345,1.042L31,47.219V41.944A22,22,0,0,0,36,28a10.072,10.072,0,0,0-2-6l-1.8-2.4c-1.155-1.54-1.989-5.4-2.213-6.763A1,1,0,0,0,28.2,12.4a18.866,18.866,0,0,1-7.158,5.789L17.121,20A8.843,8.843,0,0,0,12,28a22,22,0,0,0,5,13.944v5.275L9.292,49.146,6.947,48.1a6.648,6.648,0,0,1-3.072-9.371A23.751,23.751,0,0,0,7,26.969V20a17,17,0,0,1,34,0v2.877L38.03,34.758A1,1,0,0,0,39,36a7.422,7.422,0,0,0,3.454-.857A23.745,23.745,0,0,0,44.125,38.733Zm.162-8.824a5.463,5.463,0,0,1-3.966,3.929l4.344-17.374,2.919.73ZM57,21a3.979,3.979,0,0,1-3.044-1.441,1,1,0,0,0-1.009-.327l-4.091,1.024.865-3.336,2.876-.745a1,1,0,0,0,.682-.609A3.995,3.995,0,1,1,57,21Z"/><path d="M48,11a3,3,0,1,0-3-3A3,3,0,0,0,48,11Zm0-4a1,1,0,1,1-1,1A1,1,0,0,1,48,7Z"/><path d="M57,14a3,3,0,1,0,3,3A3,3,0,0,0,57,14Zm0,4a1,1,0,1,1,1-1A1,1,0,0,1,57,18Z"/></g></svg>
